<mxfile host="app.diagrams.net" agent="Mozilla/5.0 (Macintosh; Intel Mac OS X 10_15_7) AppleWebKit/537.36 (KHTML, like Gecko) Chrome/132.0.0.0 Safari/537.36" version="26.0.11">
  <diagram name="Bloom Social Backend Architecture" id="bloom-architecture">
    <mxGraphModel dx="1306" dy="859" grid="1" gridSize="10" guides="1" tooltips="1" connect="1" arrows="1" fold="1" page="1" pageScale="1" pageWidth="850" pageHeight="1100" math="0" shadow="0">
      <root>
        <mxCell id="0" />
        <mxCell id="1" parent="0" />
        <mxCell id="client" value="Client Application" style="rounded=1;whiteSpace=wrap;html=1;fillColor=#dae8fc;strokeColor=#6c8ebf;" parent="1" vertex="1">
          <mxGeometry x="320" y="40" width="160" height="60" as="geometry" />
        </mxCell>
        <mxCell id="api" value="API Layer" style="rounded=1;whiteSpace=wrap;html=1;fillColor=#d5e8d4;strokeColor=#82b366;" parent="1" vertex="1">
          <mxGeometry x="320" y="160" width="160" height="60" as="geometry" />
        </mxCell>
        <mxCell id="auth" value="Authentication Middleware" style="rounded=1;whiteSpace=wrap;html=1;fillColor=#ffe6cc;strokeColor=#d79b00;" parent="1" vertex="1">
          <mxGeometry x="320" y="280" width="160" height="60" as="geometry" />
        </mxCell>
        <mxCell id="controllers" value="User Controller" style="rounded=1;whiteSpace=wrap;html=1;fillColor=#fff2cc;strokeColor=#d6b656;" parent="1" vertex="1">
          <mxGeometry x="320" y="400" width="160" height="60" as="geometry" />
        </mxCell>
        <mxCell id="auth-service" value="Auth Service" style="rounded=1;whiteSpace=wrap;html=1;fillColor=#f8cecc;strokeColor=#b85450;" parent="1" vertex="1">
          <mxGeometry x="160" y="520" width="160" height="60" as="geometry" />
        </mxCell>
        <mxCell id="user-service" value="User Service" style="rounded=1;whiteSpace=wrap;html=1;fillColor=#f8cecc;strokeColor=#b85450;" parent="1" vertex="1">
          <mxGeometry x="480" y="520" width="160" height="60" as="geometry" />
        </mxCell>
        <mxCell id="prisma" value="Prisma ORM" style="rounded=1;whiteSpace=wrap;html=1;fillColor=#e1d5e7;strokeColor=#9673a6;" parent="1" vertex="1">
          <mxGeometry x="320" y="640" width="160" height="60" as="geometry" />
        </mxCell>
        <mxCell id="db" value="PostgreSQL Database" style="shape=cylinder3;whiteSpace=wrap;html=1;boundedLbl=1;backgroundOutline=1;size=15;fillColor=#f5f5f5;strokeColor=#666666;fontColor=#333333;" parent="1" vertex="1">
          <mxGeometry x="360" y="760" width="80" height="100" as="geometry" />
        </mxCell>
        <mxCell id="ipfs" value="IPFS/Ceramic" style="ellipse;shape=cloud;whiteSpace=wrap;html=1;fillColor=#f5f5f5;strokeColor=#666666;fontColor=#333333;" parent="1" vertex="1">
          <mxGeometry x="40" y="640" width="120" height="80" as="geometry" />
        </mxCell>
        <mxCell id="web3" value="Web3 Provider" style="ellipse;shape=cloud;whiteSpace=wrap;html=1;fillColor=#f5f5f5;strokeColor=#666666;fontColor=#333333;" parent="1" vertex="1">
          <mxGeometry x="640" y="640" width="120" height="80" as="geometry" />
        </mxCell>
        <mxCell id="connection1" value="" style="endArrow=classic;html=1;" parent="1" source="client" target="api" edge="1">
          <mxGeometry width="50" height="50" relative="1" as="geometry" />
        </mxCell>
        <mxCell id="connection2" value="" style="endArrow=classic;html=1;" parent="1" source="api" target="auth" edge="1">
          <mxGeometry width="50" height="50" relative="1" as="geometry" />
        </mxCell>
        <mxCell id="connection3" value="" style="endArrow=classic;html=1;" parent="1" source="auth" target="controllers" edge="1">
          <mxGeometry width="50" height="50" relative="1" as="geometry" />
        </mxCell>
        <mxCell id="connection4" value="" style="endArrow=classic;html=1;" parent="1" source="controllers" target="auth-service" edge="1">
          <mxGeometry width="50" height="50" relative="1" as="geometry" />
        </mxCell>
        <mxCell id="connection5" value="" style="endArrow=classic;html=1;" parent="1" source="controllers" target="user-service" edge="1">
          <mxGeometry width="50" height="50" relative="1" as="geometry" />
        </mxCell>
        <mxCell id="connection6" value="" style="endArrow=classic;html=1;" parent="1" source="auth-service" target="prisma" edge="1">
          <mxGeometry width="50" height="50" relative="1" as="geometry" />
        </mxCell>
        <mxCell id="connection7" value="" style="endArrow=classic;html=1;" parent="1" source="user-service" target="prisma" edge="1">
          <mxGeometry width="50" height="50" relative="1" as="geometry" />
        </mxCell>
        <mxCell id="connection8" value="" style="endArrow=classic;html=1;" parent="1" source="prisma" target="db" edge="1">
          <mxGeometry width="50" height="50" relative="1" as="geometry" />
        </mxCell>
        <mxCell id="connection9" value="" style="endArrow=classic;html=1;" parent="1" source="user-service" target="ipfs" edge="1">
          <mxGeometry width="50" height="50" relative="1" as="geometry" />
        </mxCell>
        <mxCell id="connection10" value="" style="endArrow=classic;html=1;" parent="1" source="user-service" target="web3" edge="1">
          <mxGeometry width="50" height="50" relative="1" as="geometry" />
        </mxCell>
        <mxCell id="connection11" value="" style="endArrow=classic;html=1;" parent="1" source="auth-service" target="web3" edge="1">
          <mxGeometry width="50" height="50" relative="1" as="geometry" />
        </mxCell>
        <mxCell id="connection13" value="" style="endArrow=classic;html=1;" parent="1" target="prisma" edge="1">
          <mxGeometry width="50" height="50" relative="1" as="geometry">
            <mxPoint x="480" y="670" as="sourcePoint" />
          </mxGeometry>
        </mxCell>
      </root>
    </mxGraphModel>
  </diagram>
</mxfile>
